<svg width="500" height="500" viewBox="0 0 500 500" fill="none" xmlns="http://www.w3.org/2000/svg">
<path d="M186.935 89.0296L315.178 89L315.205 106.293L362.428 106.264C362.519 112.028 362.496 117.792 362.364 123.554L380.675 123.56L380.687 141.045L397.053 141.055L397.075 158.448C402.572 158.451 408.255 158.379 413.733 158.485L413.741 192.667H430.38C430.391 201.865 429.53 218.852 430.349 226.705C435.827 226.772 441.305 226.775 446.783 226.713C446.783 232.219 446.689 238.018 446.802 243.497C446.814 257.192 447.019 271.358 446.806 285.011L462.994 285.007C462.941 291.301 462.922 297.594 462.941 303.892C463.21 317.879 462.421 333.186 462.952 346.855C457.705 346.885 452.36 346.972 447.121 346.935C447.125 351.999 446.89 359.704 447.201 364.59L447.155 366.722L447.182 381.404C443.403 381.354 438.392 381.206 434.651 381.525C429.473 381.969 420.649 383.213 415.547 382.443L414.511 383.357C414.56 387.602 414.53 392.105 414.78 396.324L397.777 396.358L397.751 409.985L97.4585 410C97.7962 406.669 97.6497 399.894 97.6588 396.316L85.6744 396.343C85.685 391.927 85.6353 387.633 85.9862 383.228L85.9889 382.523C82.8007 381.851 77.7954 382.583 74.4323 382.219C67.2232 381.445 60.3237 381.423 53.0745 381.453L53.1208 364.617C47.738 364.457 41.9511 364.594 36.5334 364.632C36.5995 358.676 36.5596 352.72 36.4143 346.768L20.0235 346.756L20 285.144C25.1851 284.92 31.0395 285.011 36.3153 284.912C36.8403 272.5 36.3669 256.373 36.3468 243.653C41.8874 243.675 47.428 243.653 52.9682 243.588L52.9755 226.757L69.4911 226.742C69.3955 215.408 69.6026 204.113 69.427 192.751C74.8879 192.601 80.6895 192.679 86.177 192.663C86.603 182.182 86.2692 169.131 86.3196 158.482C91.888 158.346 97.8375 158.449 103.435 158.449C103.378 152.688 103.441 146.836 103.451 141.066L120.724 141.006C120.391 135.57 120.569 129.083 120.595 123.558L139.505 123.595C139.772 117.953 139.673 112 139.661 106.326L186.883 106.274L186.935 89.0296Z" fill="#52E4DE"/>
<path d="M186.935 89.0296L315.178 89L315.205 106.293L362.428 106.264C362.519 112.028 362.496 117.792 362.363 123.554L380.675 123.56L380.687 141.045L397.052 141.055L397.075 158.448C402.572 158.451 408.255 158.379 413.733 158.485L413.741 192.667H430.38C430.391 201.865 429.53 218.852 430.349 226.705L413.71 226.659L413.748 192.67L397.052 192.714L397.075 158.532L380.307 158.572L380.349 141.131L362.177 141.115L362.2 123.626L315.186 123.624L315.197 106.399L186.928 106.409L186.883 123.616L139.504 123.595C139.772 117.953 139.672 112 139.661 106.326L186.882 106.274L186.935 89.0296Z" fill="#091B2E"/>
<path d="M85.9862 383.228C88.0214 383.737 95.3242 383.509 97.8963 383.505C97.8694 386.624 97.7886 389.898 97.8572 393.005L398.597 392.959L398.672 383.475C403.437 383.482 409.886 383.665 414.511 383.357C414.56 387.602 414.53 392.105 414.78 396.324L397.777 396.358L397.751 409.985L97.4585 410C97.7961 406.669 97.6497 399.894 97.6588 396.316L85.6743 396.343C85.6849 391.927 85.6353 387.633 85.9862 383.228Z" fill="#091B2E"/>
<path d="M462.572 329.969C462.561 326.847 462.22 305.144 462.94 303.892C463.21 317.879 462.421 333.186 462.952 346.855C457.705 346.885 452.36 346.972 447.121 346.935C447.125 351.999 446.889 359.704 447.201 364.59L447.155 366.722L447.182 381.404C443.403 381.354 438.392 381.206 434.651 381.525C429.473 381.969 420.649 383.213 415.546 382.443L414.511 383.357C409.886 383.665 403.437 383.482 398.672 383.475L398.596 392.959L97.857 393.005C97.7884 389.898 97.8692 386.624 97.8961 383.505C97.785 381.901 97.7375 380.683 97.7557 379.074C98.3574 382.136 99.1632 381.4 102.313 381.404L289.446 381.392L350.436 381.381C363.145 381.385 376.802 381.627 389.427 381.092L389.499 365.068C391.502 365.099 393.414 364.973 395.406 364.89C406.779 364.416 418.088 364.753 429.477 364.4C429.704 359.014 429.64 353.046 429.689 347.617C435.338 347.598 440.987 347.481 446.631 347.261L446.722 329.931L462.572 329.969Z" fill="#1EC3C0"/>
<path d="M447.155 366.722L447.182 381.404C443.403 381.354 438.392 381.206 434.651 381.525C429.473 381.969 420.649 383.213 415.547 382.443C415.93 380.334 415.793 369.556 415.797 366.772C426.241 366.863 436.7 366.605 447.155 366.722Z" fill="#091B2E"/>
<path d="M120.595 123.558L139.505 123.595L139.491 141.129L121.307 141.086L121.321 158.598L103.477 158.552L103.486 192.67C100.243 192.66 88.6622 192.465 86.1986 192.886C86.2305 198.476 86.3197 204.168 86.273 209.749C86.2499 215.234 86.1122 221.234 86.2992 226.677L69.6743 226.722C69.6641 232.305 69.6132 237.941 69.6694 243.52L52.9815 243.554L53.0085 285.022L36.5444 284.999C36.0391 288.243 36.2865 300.751 36.2914 304.776L36.3752 346.745C39.3631 346.775 50.8267 346.688 53.0642 347.098C52.9861 352.705 51.7531 361.085 54.4026 365.967C56.5354 367.671 80.5943 366.438 85.463 366.866C89.8675 366.225 92.567 367.276 98.0781 366.039C97.6304 370.353 98.2059 375.307 97.756 379.074C97.7378 380.683 97.7852 381.9 97.8963 383.505C95.3243 383.509 88.0215 383.737 85.9862 383.228L85.9889 382.523C82.8007 381.851 77.7954 382.583 74.4323 382.219C67.2232 381.445 60.3237 381.422 53.0745 381.453L53.1208 364.617C47.738 364.457 41.9511 364.594 36.5334 364.632C36.5995 358.676 36.5596 352.72 36.4143 346.768L20.0235 346.756L20 285.144C25.1851 284.92 31.0395 285.011 36.3153 284.912C36.8403 272.499 36.3669 256.373 36.3468 243.653C41.8874 243.675 47.428 243.653 52.9682 243.588L52.9755 226.756L69.4911 226.742C69.3955 215.408 69.6026 204.113 69.427 192.751C74.8879 192.601 80.6895 192.679 86.177 192.663C86.603 182.182 86.2692 169.131 86.3196 158.482C91.888 158.346 97.8375 158.449 103.435 158.449C103.378 152.688 103.441 146.836 103.451 141.066L120.724 141.006C120.391 135.57 120.569 129.083 120.595 123.558Z" fill="#091B2E"/>
<path d="M85.4631 366.866C89.8675 366.225 92.567 367.276 98.0781 366.039C97.6304 370.353 98.2059 375.307 97.756 379.074C97.7378 380.683 97.7852 381.901 97.8964 383.505C95.3243 383.509 88.0215 383.737 85.9862 383.228L85.9889 382.523L86.0708 382.348C85.1247 379.313 85.3659 370.338 85.4631 366.866Z" fill="#17B1AE"/>
<path d="M86.1987 192.887C90.6358 193.335 98.7819 193.042 103.667 193.09C109.797 193.684 114.549 193.152 120.448 193.21L120.453 201.353C114.871 201.273 108.862 201.398 103.365 201.202C103.459 204.035 103.495 206.868 103.471 209.702C99.2636 209.724 89.9969 210.107 86.2731 209.749C86.3197 204.168 86.2306 198.476 86.1987 192.887Z" fill="#91F8F3"/>
<path d="M53.0643 347.098C55.2832 347.697 67.5154 347.431 70.4702 347.405C70.5131 353.092 70.6535 359.07 70.5746 364.738C74.2677 364.693 96.1278 364.135 97.7913 365.072L98.0781 366.039C92.5671 367.276 89.8675 366.225 85.4631 366.866C80.5943 366.438 56.5354 367.671 54.4027 365.967C51.7532 361.085 52.9861 352.705 53.0643 347.098Z" fill="#1EC3C0"/>
<path d="M36.3752 346.745L36.2914 304.776C36.2865 300.751 36.0391 288.243 36.5444 285C36.9151 289.844 36.7197 296.908 36.7193 301.889L36.6837 329.981L53.0308 329.912L53.0642 347.098C50.8267 346.688 39.3631 346.775 36.3752 346.745Z" fill="#1EC3C0"/>
<path d="M430.349 226.705C435.827 226.772 441.305 226.775 446.783 226.713C446.783 232.219 446.689 238.018 446.802 243.497L430.399 243.52C430.425 237.915 430.41 232.31 430.349 226.705Z" fill="#091B2E"/>
<path d="M319.992 243.508L366.096 243.478L366.221 254.924C372.204 254.874 374.438 255.834 379.681 256.058V307.238L366.138 307.219L366.111 320.762L319.909 320.774C319.742 316.225 319.852 311.779 319.931 307.234L306.764 307.257L306.805 256.149C311.081 256.187 315.455 256.126 319.738 256.103C319.78 251.904 319.863 247.704 319.992 243.508Z" fill="#091B2E"/>
<path d="M331.828 256.043H354.571L354.609 279.984L331.718 279.965C331.635 271.991 331.673 264.017 331.828 256.043Z" fill="#FEFEFE"/>
<path d="M136.984 243.497L183.118 243.459L183.131 254.851C186.439 254.783 193.029 254.635 195.863 256.475C196.484 259.798 196.225 270.311 196.216 274.4L196.24 307.249L183.139 307.227L183.052 320.679C168.204 321.104 151.954 320.728 136.965 320.793C136.865 316.369 136.945 311.669 136.953 307.227L123.864 307.253L123.876 256.172L136.885 256.103C136.843 251.942 136.94 247.666 136.984 243.497Z" fill="#091B2E"/>
<path d="M150.169 256.077C157.835 256.024 165.501 256.016 173.167 256.058L173.205 279.973L150.149 279.943L150.169 256.077Z" fill="#FEFEFE"/>
<path d="M164.833 141.215L204.009 141.183C204.357 146.268 204.114 153.555 204.084 158.803L187.299 158.723L187.338 176.342C181.785 176.407 176.158 176.363 170.597 176.366L170.581 194.163L160.913 194.2L121.319 194.138L121.369 176.726L139.416 176.685L139.436 158.936C147.915 158.878 156.394 158.873 164.873 158.921C164.902 153.019 164.889 147.117 164.833 141.215Z" fill="#91F8F3"/>
<path d="M222.894 292.814L235.828 292.811L235.836 304.23L267.257 304.195L267.291 292.826H280.281C280.277 295.542 280.842 305.33 279.917 307.063L278.801 307.23L267.731 307.257L267.709 320.72C257.03 320.887 246.043 320.762 235.345 320.758L235.314 307.264C231.249 307.189 226.96 307.249 222.88 307.249C222.775 302.575 222.881 297.519 222.894 292.814Z" fill="#091B2E"/>
<path d="M446.802 243.497C452.136 243.603 457.47 243.626 462.804 243.573C462.842 255.83 462.307 273.141 462.914 285.037C467.971 285.041 474.06 285.159 479.06 284.924C479.067 305.22 478.741 326.57 479.128 346.805L462.948 346.836C462.941 352.522 463.066 358.934 462.793 364.56L447.201 364.59C446.89 359.704 447.125 351.999 447.121 346.934C452.36 346.972 457.705 346.885 462.952 346.855C462.421 333.186 463.21 317.879 462.941 303.892C462.922 297.594 462.941 291.301 462.994 285.007L446.806 285.011C447.019 271.358 446.814 257.192 446.802 243.497Z" fill="#091B2E"/>
</svg>
